<svg xmlns="http://www.w3.org/2000/svg" viewBox="0 0 280 580"><defs><style>.a{fill:#0f0f0f;}.b{fill:#b3b3b3;}.c{fill:#242424;}.d{fill:#3d3d3d;}.e{fill:#555;}</style></defs><rect class="a" x="0.5" y="0.5" width="279" height="579" rx="39.5"/><path class="b" d="M239.762,1a39.044,39.044,0,0,1,39,39V540a39.044,39.044,0,0,1-39,39h-200a39.044,39.044,0,0,1-39-39V40a39.044,39.044,0,0,1,39-39h200m0-1h-200a40,40,0,0,0-40,40V540a40,40,0,0,0,40,40h200a40,40,0,0,0,40-40V40a40,40,0,0,0-40-40Z" transform="translate(0.238)"/><circle cx="80.238" cy="17" r="5"/><circle class="c" cx="80.238" cy="17" r="2"/><circle cx="105.238" cy="17" r="5"/><circle class="c" cx="105.238" cy="17" r="2"/><circle class="d" cx="199.238" cy="17" r="6"/><circle class="c" cx="199.238" cy="17" r="2.4"/><rect class="c" x="119.238" y="15" width="41" height="4" rx="2"/><path class="e" d="M103.959,563.362H107v1.02h-3.041Zm.645-.826a1.727,1.727,0,0,1,.372-1.21,1.491,1.491,0,0,1,1.145-.4H107v1.137h-.855a.29.29,0,0,0-.258.128.58.58,0,0,0-.088.334v6.92h-1.2Z" transform="translate(0.238)"/><path class="e" d="M109.033,569.222a2.046,2.046,0,0,1-.858-.906,3.189,3.189,0,0,1-.3-1.432v-.99a3.122,3.122,0,0,1,.3-1.415,2.035,2.035,0,0,1,.858-.9,3.128,3.128,0,0,1,2.707,0,2.042,2.042,0,0,1,.859.9,3.122,3.122,0,0,1,.3,1.415V566.9a3.137,3.137,0,0,1-.3,1.421,2.06,2.06,0,0,1-.859.9,3.11,3.11,0,0,1-2.707,0ZM111.356,568a1.62,1.62,0,0,0,.343-1.1v-1.007a1.6,1.6,0,0,0-.343-1.1,1.408,1.408,0,0,0-1.939,0,1.6,1.6,0,0,0-.343,1.1V566.9a1.62,1.62,0,0,0,.343,1.1,1.392,1.392,0,0,0,1.939,0Z" transform="translate(0.238)"/><path class="e" d="M114.594,563.362h1.2v6.082h-1.2Zm2.947,1.149a1.435,1.435,0,0,0-.557-.1,1.19,1.19,0,0,0-.881.314,1.176,1.176,0,0,0-.314.87l-.123-1.172a2.239,2.239,0,0,1,.727-.847,1.716,1.716,0,0,1,.984-.3,2.211,2.211,0,0,1,.753.121,1.692,1.692,0,0,1,.589.354l-.78,1.055A.992.992,0,0,0,117.541,564.511Z" transform="translate(0.238)"/><path class="e" d="M120.386,569.26a1.832,1.832,0,0,1-.718-.847,3.289,3.289,0,0,1-.246-1.336v-1.342a3.377,3.377,0,0,1,.24-1.341,1.817,1.817,0,0,1,.7-.847,2.033,2.033,0,0,1,1.105-.29,1.825,1.825,0,0,1,.987.281,2.079,2.079,0,0,1,.724.791l-.123,1.242a1.438,1.438,0,0,0-.141-.662.964.964,0,0,0-.407-.419,1.361,1.361,0,0,0-.648-.143,1.159,1.159,0,0,0-.917.369,1.521,1.521,0,0,0-.325,1.037v1.324a1.479,1.479,0,0,0,.325,1.023,1.173,1.173,0,0,0,.917.36,1.315,1.315,0,0,0,.648-.149.992.992,0,0,0,.407-.431,1.49,1.49,0,0,0,.141-.674l.082,1.283a1.732,1.732,0,0,1-.595.756,1.665,1.665,0,0,1-1.017.3A2.135,2.135,0,0,1,120.386,569.26Zm2.669-8.335h1.195v8.519h-1.195Z" transform="translate(0.238)"/><path class="e" d="M127.045,569.222a2.046,2.046,0,0,1-.858-.906,3.175,3.175,0,0,1-.3-1.432v-.99a3.109,3.109,0,0,1,.3-1.415,2.035,2.035,0,0,1,.858-.9,3.128,3.128,0,0,1,2.707,0,2.035,2.035,0,0,1,.858.9,3.109,3.109,0,0,1,.3,1.415V566.9a3.124,3.124,0,0,1-.3,1.421,2.052,2.052,0,0,1-.858.9,3.11,3.11,0,0,1-2.707,0ZM129.368,568a1.62,1.62,0,0,0,.343-1.1v-1.007a1.6,1.6,0,0,0-.343-1.1,1.408,1.408,0,0,0-1.939,0,1.6,1.6,0,0,0-.343,1.1V566.9a1.62,1.62,0,0,0,.343,1.1,1.392,1.392,0,0,0,1.939,0Z" transform="translate(0.238)"/><path class="e" d="M131.844,563.362h1.248l1.078,4.342,1.518-4.342h.832l1.517,4.342,1.078-4.342h1.248l-1.875,6.082h-.9l-1.482-4.2-1.483,4.2h-.9Z" transform="translate(0.238)"/><path class="e" d="M141.652,563.362h1.2v6.082h-1.2Zm3.692,2.4a1.391,1.391,0,0,0-.334-1,1.23,1.23,0,0,0-.938-.352,1.246,1.246,0,0,0-.905.311,1.161,1.161,0,0,0-.319.873l-.123-1.172a2.164,2.164,0,0,1,.735-.85,1.793,1.793,0,0,1,1-.3,1.886,1.886,0,0,1,1.532.648,2.777,2.777,0,0,1,.542,1.831v3.691h-1.195Z" transform="translate(0.238)"/><path class="e" d="M149.551,567.874a.539.539,0,0,0,.1.343.332.332,0,0,0,.273.12h.562v1.137h-.7a1.328,1.328,0,0,1-1.051-.422,1.736,1.736,0,0,1-.373-1.19v-6.937h1.2Z" transform="translate(0.238)"/><path class="e" d="M152.809,569.222a2.048,2.048,0,0,1-.859-.906,3.189,3.189,0,0,1-.3-1.432v-.99a3.122,3.122,0,0,1,.3-1.415,2.037,2.037,0,0,1,.859-.9,3.128,3.128,0,0,1,2.707,0,2.035,2.035,0,0,1,.858.9,3.122,3.122,0,0,1,.3,1.415V566.9a3.137,3.137,0,0,1-.3,1.421,2.052,2.052,0,0,1-.858.9,3.11,3.11,0,0,1-2.707,0ZM155.132,568a1.625,1.625,0,0,0,.343-1.1v-1.007a1.6,1.6,0,0,0-.343-1.1,1.409,1.409,0,0,0-1.94,0,1.6,1.6,0,0,0-.342,1.1V566.9a1.625,1.625,0,0,0,.342,1.1,1.394,1.394,0,0,0,1.94,0Z" transform="translate(0.238)"/><path class="e" d="M158.633,569.066a1.74,1.74,0,0,1-.557-1.415,1.713,1.713,0,0,1,.51-1.353,2.267,2.267,0,0,1,1.541-.451h1.728l.083.961h-1.8a1.017,1.017,0,0,0-.7.208.808.808,0,0,0-.232.635.791.791,0,0,0,.308.686,1.6,1.6,0,0,0,.934.223,2.7,2.7,0,0,0,1.023-.147.483.483,0,0,0,.337-.457l.123.856a1.419,1.419,0,0,1-.39.4,1.71,1.71,0,0,1-.536.237,2.722,2.722,0,0,1-.686.079A2.57,2.57,0,0,1,158.633,569.066Zm3.17-3.477a1.283,1.283,0,0,0-.32-.929,1.2,1.2,0,0,0-.905-.331,2.337,2.337,0,0,0-.712.111,2.135,2.135,0,0,0-.618.311l-.873-.6a2.277,2.277,0,0,1,.911-.647,3.3,3.3,0,0,1,1.257-.232,2.89,2.89,0,0,1,1.295.267,1.855,1.855,0,0,1,.82.773,2.48,2.48,0,0,1,.281,1.222v3.908H161.8Z" transform="translate(0.238)"/><path class="e" d="M165.544,569.26a1.832,1.832,0,0,1-.718-.847,3.289,3.289,0,0,1-.246-1.336v-1.342a3.377,3.377,0,0,1,.24-1.341,1.813,1.813,0,0,1,.7-.847,2.027,2.027,0,0,1,1.1-.29,1.825,1.825,0,0,1,.987.281,2.079,2.079,0,0,1,.724.791l-.123,1.242a1.438,1.438,0,0,0-.141-.662.958.958,0,0,0-.407-.419,1.359,1.359,0,0,0-.647-.143,1.156,1.156,0,0,0-.917.369,1.517,1.517,0,0,0-.326,1.037v1.324a1.475,1.475,0,0,0,.326,1.023,1.171,1.171,0,0,0,.917.36,1.314,1.314,0,0,0,.647-.149.987.987,0,0,0,.407-.431,1.49,1.49,0,0,0,.141-.674l.082,1.283a1.725,1.725,0,0,1-.595.756,1.664,1.664,0,0,1-1.016.3A2.136,2.136,0,0,1,165.544,569.26Zm2.669-8.335h1.195v8.519h-1.195Z" transform="translate(0.238)"/><path class="e" d="M172.364,569.427a3.7,3.7,0,0,1-.882-.317,3.427,3.427,0,0,1-.755-.527l.709-.873a4,4,0,0,0,.978.562,2.66,2.66,0,0,0,.961.188,2.043,2.043,0,0,0,1.063-.22.723.723,0,0,0,.355-.659.515.515,0,0,0-.193-.439,1.1,1.1,0,0,0-.481-.2c-.191-.033-.461-.063-.808-.091-.032,0-.065,0-.1,0s-.068,0-.1-.009l-.047,0a.355.355,0,0,0-.046,0,4.7,4.7,0,0,1-1-.173,1.359,1.359,0,0,1-.683-.472,1.564,1.564,0,0,1-.272-.99,2.006,2.006,0,0,1,.263-1.072,1.611,1.611,0,0,1,.785-.642,3.479,3.479,0,0,1,1.307-.214,4.562,4.562,0,0,1,.905.088,3.992,3.992,0,0,1,1.579.7l-.72.873a4.009,4.009,0,0,0-.9-.44,2.759,2.759,0,0,0-.864-.146,1.628,1.628,0,0,0-.914.208.7.7,0,0,0-.305.624.424.424,0,0,0,.173.369,1.006,1.006,0,0,0,.437.164c.175.027.425.051.75.07a.423.423,0,0,0,.073.006.546.546,0,0,1,.079.006h.035a.1.1,0,0,1,.035.006,5.161,5.161,0,0,1,1.087.17,1.469,1.469,0,0,1,.753.509,1.732,1.732,0,0,1,.305,1.1,1.953,1.953,0,0,1-.281,1.087,1.7,1.7,0,0,1-.847.647,4,4,0,0,1-1.421.217A4.654,4.654,0,0,1,172.364,569.427Z" transform="translate(0.238)"/></svg>